<?xml version="1.0" encoding="UTF-8" standalone="no"?><!DOCTYPE svg PUBLIC "-//W3C//DTD SVG 1.1//EN" "http://www.w3.org/Graphics/SVG/1.1/DTD/svg11.dtd"><!-- Generated by graphviz version 2.40.1 (20161225.0304)
 --><!-- Title: rdf_graph Pages: 1 --><svg xmlns="http://www.w3.org/2000/svg" xmlns:xlink="http://www.w3.org/1999/xlink" width="2859pt" height="2387pt" viewBox="0.00 0.00 2859.25 2386.77">
<g id="graph0" class="graph" transform="scale(1 1) rotate(0) translate(4 2382.7691)">
<title>rdf_graph</title>
<polygon fill="#ffffff" stroke="transparent" points="-4,4 -4,-2382.7691 2855.2485,-2382.7691 2855.2485,4 -4,4"/>
<!-- ns1:a3316285 -->
<g id="node1" class="node">
<title>ns1:a3316285</title>
<ellipse fill="none" stroke="#000000" cx="1383.109" cy="-1187.3729" rx="247.0354" ry="18"/>
<text text-anchor="middle" x="1383.109" y="-1183.1729" font-family="Times,serif" font-size="14.00" fill="#000000">Actas de las II Jornadas sobre Ontologías Web y Semántica</text>
</g>
<!-- ns5:spa -->
<g id="node2" class="node">
<title>ns5:spa</title>
<ellipse fill="none" stroke="#000000" cx="2558.3317" cy="-1187.3729" rx="41.7327" ry="18"/>
<text text-anchor="middle" x="2558.3317" y="-1183.1729" font-family="Times,serif" font-size="14.00" fill="#000000">Spanish</text>
</g>
<!-- ns1:a3316285&#45;&gt;ns5:spa -->
<g id="edge2" class="edge">
<title>ns1:a3316285-&gt;ns5:spa</title>
<path fill="none" stroke="#000000" d="M1630.5489,-1187.3729C1912.9714,-1187.3729 2355.3034,-1187.3729 2506.0137,-1187.3729"/>
<polygon fill="#000000" stroke="#000000" points="2506.3547,-1190.873 2516.3547,-1187.3729 2506.3547,-1183.873 2506.3547,-1190.873"/>
<text text-anchor="middle" x="2031.3465" y="-1191.5729" font-family="Times,serif" font-size="14.00" fill="#000000">ns4:language</text>
</g>
<!-- ns2:C1003 -->
<g id="node3" class="node">
<title>ns2:C1003</title>
<ellipse fill="none" stroke="#000000" cx="2546.5566" cy="-1353.3195" rx="52.7739" ry="18"/>
<text text-anchor="middle" x="2546.5566" y="-1349.1195" font-family="Times,serif" font-size="14.00" fill="#000000">ns2:C1003</text>
</g>
<!-- ns1:a3316285&#45;&gt;ns2:C1003 -->
<g id="edge1" class="edge">
<title>ns1:a3316285-&gt;ns2:C1003</title>
<path fill="none" stroke="#000000" d="M1495.7224,-1203.4354C1738.4895,-1238.0621 2304.0092,-1318.7241 2487.7501,-1344.9317"/>
<polygon fill="#000000" stroke="#000000" points="2487.363,-1348.4118 2497.7571,-1346.359 2488.3515,-1341.482 2487.363,-1348.4118"/>
<text text-anchor="middle" x="1969.5777" y="-1278.3835" font-family="Times,serif" font-size="14.00" fill="#000000">rdf:type</text>
</g>
<!-- ns1:XX4435380 -->
<g id="node4" class="node">
<title>ns1:XX4435380</title>
<ellipse fill="none" stroke="#000000" cx="2501.7181" cy="-1547.737" rx="74.7496" ry="18"/>
<text text-anchor="middle" x="2501.7181" y="-1543.537" font-family="Times,serif" font-size="14.00" fill="#000000">ns1:XX4435380</text>
</g>
<!-- ns1:a3316285&#45;&gt;ns1:XX4435380 -->
<g id="edge6" class="edge">
<title>ns1:a3316285-&gt;ns1:XX4435380</title>
<path fill="none" stroke="#000000" d="M1437.8191,-1204.998C1627.7504,-1266.1851 2257.3527,-1469.0138 2447.1165,-1530.1469"/>
<polygon fill="#000000" stroke="#000000" points="2446.2836,-1533.5557 2456.8751,-1533.2907 2448.4301,-1526.8929 2446.2836,-1533.5557"/>
<text text-anchor="middle" x="1907.8556" y="-1371.7725" font-family="Times,serif" font-size="14.00" fill="#000000">ns2:OP3004</text>
</g>
<!-- ns1:XX4430054 -->
<g id="node5" class="node">
<title>ns1:XX4430054</title>
<ellipse fill="none" stroke="#000000" cx="2414.2709" cy="-1751.158" rx="74.7496" ry="18"/>
<text text-anchor="middle" x="2414.2709" y="-1746.958" font-family="Times,serif" font-size="14.00" fill="#000000">ns1:XX4430054</text>
</g>
<!-- ns1:a3316285&#45;&gt;ns1:XX4430054 -->
<g id="edge7" class="edge">
<title>ns1:a3316285-&gt;ns1:XX4430054</title>
<path fill="none" stroke="#000000" d="M1415.9606,-1205.3345C1568.6936,-1288.8408 2208.9315,-1638.8892 2374.8602,-1729.6103"/>
<polygon fill="#000000" stroke="#000000" points="2373.3028,-1732.7477 2383.756,-1734.474 2376.6609,-1726.6057 2373.3028,-1732.7477"/>
<text text-anchor="middle" x="1860.7982" y="-1471.6724" font-family="Times,serif" font-size="14.00" fill="#000000">ns2:OP3006</text>
</g>
<!-- ns1:XX1464262 -->
<g id="node6" class="node">
<title>ns1:XX1464262</title>
<ellipse fill="none" stroke="#000000" cx="2290.2203" cy="-1934.5661" rx="74.7496" ry="18"/>
<text text-anchor="middle" x="2290.2203" y="-1930.3661" font-family="Times,serif" font-size="14.00" fill="#000000">ns1:XX1464262</text>
</g>
<!-- ns1:a3316285&#45;&gt;ns1:XX1464262 -->
<g id="edge8" class="edge">
<title>ns1:a3316285-&gt;ns1:XX1464262</title>
<path fill="none" stroke="#000000" d="M1405.0826,-1205.4728C1527.2455,-1306.099 2122.2819,-1796.2342 2261.1867,-1910.6509"/>
<polygon fill="#000000" stroke="#000000" points="2258.9936,-1913.3789 2268.9375,-1917.0353 2263.4441,-1907.9758 2258.9936,-1913.3789"/>
<text text-anchor="middle" x="1798.5225" y="-1562.2618" font-family="Times,serif" font-size="14.00" fill="#000000">ns2:OP3006</text>
</g>
<!-- ns1:XX771271 -->
<g id="node7" class="node">
<title>ns1:XX771271</title>
<ellipse fill="none" stroke="#000000" cx="2137.6778" cy="-2088.3582" rx="70.0925" ry="18"/>
<text text-anchor="middle" x="2137.6778" y="-2084.1582" font-family="Times,serif" font-size="14.00" fill="#000000">ns1:XX771271</text>
</g>
<!-- ns1:a3316285&#45;&gt;ns1:XX771271 -->
<g id="edge9" class="edge">
<title>ns1:a3316285-&gt;ns1:XX771271</title>
<path fill="none" stroke="#000000" d="M1398.1818,-1205.3705C1492.8892,-1318.4548 2005.3746,-1930.3829 2116.4388,-2062.998"/>
<polygon fill="#000000" stroke="#000000" points="2113.7755,-2065.2692 2122.8795,-2070.6885 2119.1421,-2060.7747 2113.7755,-2065.2692"/>
<text text-anchor="middle" x="1722.6981" y="-1638.3842" font-family="Times,serif" font-size="14.00" fill="#000000">ns2:OP3008</text>
</g>
<!-- ns1:XX4436602 -->
<g id="node8" class="node">
<title>ns1:XX4436602</title>
<ellipse fill="none" stroke="#000000" cx="1959.5005" cy="-2211.5415" rx="74.7496" ry="18"/>
<text text-anchor="middle" x="1959.5005" y="-2207.3415" font-family="Times,serif" font-size="14.00" fill="#000000">ns1:XX4436602</text>
</g>
<!-- ns1:a3316285&#45;&gt;ns1:XX4436602 -->
<g id="edge10" class="edge">
<title>ns1:a3316285-&gt;ns1:XX4436602</title>
<path fill="none" stroke="#000000" d="M1393.358,-1205.584C1462.5251,-1328.4845 1860.874,-2036.2956 1944.2148,-2184.3809"/>
<polygon fill="#000000" stroke="#000000" points="1941.2872,-2186.3153 1949.2419,-2193.3134 1947.3875,-2182.8821 1941.2872,-2186.3153"/>
<text text-anchor="middle" x="1634.1742" y="-1699.1824" font-family="Times,serif" font-size="14.00" fill="#000000">ns2:OP3008</text>
</g>
<!-- ns2:1000003906 -->
<g id="node9" class="node">
<title>ns2:1000003906</title>
<ellipse fill="none" stroke="#000000" cx="1756.653" cy="-2301.65" rx="75.3349" ry="18"/>
<text text-anchor="middle" x="1756.653" y="-2297.45" font-family="Times,serif" font-size="14.00" fill="#000000">ns2:1000003906</text>
</g>
<!-- ns1:a3316285&#45;&gt;ns2:1000003906 -->
<g id="edge3" class="edge">
<title>ns1:a3316285-&gt;ns2:1000003906</title>
<path fill="none" stroke="#000000" d="M1389.2809,-1205.7836C1432.8633,-1335.7893 1694.0502,-2114.9065 1747.2125,-2273.4889"/>
<polygon fill="#000000" stroke="#000000" points="1744.0453,-2275.053 1750.5424,-2283.4219 1750.6823,-2272.828 1744.0453,-2275.053"/>
<text text-anchor="middle" x="1533.6345" y="-1743.8363" font-family="Times,serif" font-size="14.00" fill="#000000">ns2:OP3001</text>
</g>
<!-- ns2:1000003907 -->
<g id="node10" class="node">
<title>ns2:1000003907</title>
<ellipse fill="none" stroke="#000000" cx="1539.9431" cy="-2352.0839" rx="75.3349" ry="18"/>
<text text-anchor="middle" x="1539.9431" y="-2347.8839" font-family="Times,serif" font-size="14.00" fill="#000000">ns2:1000003907</text>
</g>
<!-- ns1:a3316285&#45;&gt;ns2:1000003907 -->
<g id="edge4" class="edge">
<title>ns1:a3316285-&gt;ns2:1000003907</title>
<path fill="none" stroke="#000000" d="M1385.5725,-1205.6678C1403.5151,-1338.9167 1514.0221,-2159.5846 1536.1051,-2323.5812"/>
<polygon fill="#000000" stroke="#000000" points="1532.6817,-2324.3859 1537.485,-2333.8293 1539.6191,-2323.4517 1532.6817,-2324.3859"/>
<text text-anchor="middle" x="1426.2266" y="-1768.8245" font-family="Times,serif" font-size="14.00" fill="#000000">ns2:OP3001</text>
</g>
<!-- ns2:1000003908 -->
<g id="node11" class="node">
<title>ns2:1000003908</title>
<ellipse fill="none" stroke="#000000" cx="1317.6115" cy="-2360.7691" rx="75.3349" ry="18"/>
<text text-anchor="middle" x="1317.6115" y="-2356.5691" font-family="Times,serif" font-size="14.00" fill="#000000">ns2:1000003908</text>
</g>
<!-- ns1:a3316285&#45;&gt;ns2:1000003908 -->
<g id="edge5" class="edge">
<title>ns1:a3316285-&gt;ns2:1000003908</title>
<path fill="none" stroke="#000000" d="M1382.0802,-1205.8042C1374.5869,-1340.0467 1328.4367,-2166.8344 1319.2143,-2332.0539"/>
<polygon fill="#000000" stroke="#000000" points="1315.7009,-2332.1989 1318.638,-2342.3784 1322.69,-2332.5891 1315.7009,-2332.1989"/>
<text text-anchor="middle" x="1316.035" y="-1773.1291" font-family="Times,serif" font-size="14.00" fill="#000000">ns2:OP3001</text>
</g>
<!-- Thomson -->
<g id="node12" class="node">
<title>Thomson</title>
<ellipse fill="none" stroke="#000000" cx="1124.7697" cy="-2333.8499" rx="47.5351" ry="18"/>
<text text-anchor="middle" x="1124.7697" y="-2329.6499" font-family="Times,serif" font-size="14.00" fill="#000000">Thomson</text>
</g>
<!-- ns1:a3316285&#45;&gt;Thomson -->
<g id="edge11" class="edge">
<title>ns1:a3316285-&gt;Thomson</title>
<path fill="none" stroke="#000000" d="M1379.0511,-1205.3813C1349.4958,-1336.5442 1167.4671,-2144.3643 1131.0917,-2305.7934"/>
<polygon fill="#000000" stroke="#000000" points="1127.6025,-2305.3563 1128.8186,-2315.8811 1134.4313,-2306.8951 1127.6025,-2305.3563"/>
<text text-anchor="middle" x="1225.5125" y="-1759.7874" font-family="Times,serif" font-size="14.00" fill="#000000">ns2:P3001</text>
</g>
<!-- &quot;Actas de las II Jornadas sobre Ontologías Web y Semántica&quot; -->
<g id="node13" class="node">
<title>"Actas de las II Jornadas sobre Ontologías Web y Semántica"</title>
<ellipse fill="none" stroke="#000000" cx="778.4478" cy="-2195.1097" rx="255.2915" ry="18"/>
<text text-anchor="middle" x="778.4478" y="-2190.9097" font-family="Times,serif" font-size="14.00" fill="#000000">"Actas de las II Jornadas sobre Ontologías Web y Semántica"</text>
</g>
<!-- ns1:a3316285&#45;&gt;&quot;Actas de las II Jornadas sobre Ontologías Web y Semántica&quot; -->
<g id="edge12" class="edge">
<title>ns1:a3316285-&gt;"Actas de las II Jornadas sobre Ontologías Web y Semántica"</title>
<path fill="none" stroke="#000000" d="M1372.0978,-1205.7243C1298.8765,-1327.7559 882.5943,-2021.5377 794.7312,-2167.9715"/>
<polygon fill="#000000" stroke="#000000" points="791.5698,-2166.4378 789.4259,-2176.8135 797.5722,-2170.0394 791.5698,-2166.4378"/>
<text text-anchor="middle" x="1053.8556" y="-1691.0479" font-family="Times,serif" font-size="14.00" fill="#000000">ns2:P3002</text>
</g>
<!-- &quot;Madrid&quot; -->
<g id="node14" class="node">
<title>"Madrid"</title>
<ellipse fill="none" stroke="#000000" cx="493.1771" cy="-1954.9469" rx="47.1822" ry="18"/>
<text text-anchor="middle" x="493.1771" y="-1950.7469" font-family="Times,serif" font-size="14.00" fill="#000000">"Madrid"</text>
</g>
<!-- ns1:a3316285&#45;&gt;&quot;Madrid&quot; -->
<g id="edge13" class="edge">
<title>ns1:a3316285-&gt;"Madrid"</title>
<path fill="none" stroke="#000000" d="M1361.9883,-1205.5897C1242.7479,-1308.4356 654.3544,-1815.93 520.3655,-1931.4967"/>
<polygon fill="#000000" stroke="#000000" points="517.842,-1929.0511 512.5555,-1938.2328 522.414,-1934.3519 517.842,-1929.0511"/>
<text text-anchor="middle" x="911.618" y="-1572.7432" font-family="Times,serif" font-size="14.00" fill="#000000">ns2:P3003</text>
</g>
<!-- &quot;IV, 75 p.&quot; -->
<g id="node15" class="node">
<title>"IV, 75 p."</title>
<ellipse fill="none" stroke="#000000" cx="390.4406" cy="-1816.466" rx="53.4874" ry="18"/>
<text text-anchor="middle" x="390.4406" y="-1812.266" font-family="Times,serif" font-size="14.00" fill="#000000">"IV, 75 p."</text>
</g>
<!-- ns1:a3316285&#45;&gt;&quot;IV, 75 p.&quot; -->
<g id="edge14" class="edge">
<title>ns1:a3316285-&gt;"IV, 75 p."</title>
<path fill="none" stroke="#000000" d="M1354.7357,-1205.3542C1212.5187,-1295.4827 577.9987,-1697.6031 424.1323,-1795.1142"/>
<polygon fill="#000000" stroke="#000000" points="422.0901,-1792.2648 415.517,-1800.5741 425.8372,-1798.1774 422.0901,-1792.2648"/>
<text text-anchor="middle" x="859.8751" y="-1504.4342" font-family="Times,serif" font-size="14.00" fill="#000000">ns2:P3004</text>
</g>
<!-- &quot;[Texto impreso]&quot; -->
<g id="node16" class="node">
<title>"[Texto impreso]"</title>
<ellipse fill="none" stroke="#000000" cx="295.702" cy="-1633.1246" rx="81.2903" ry="18"/>
<text text-anchor="middle" x="295.702" y="-1628.9246" font-family="Times,serif" font-size="14.00" fill="#000000">"[Texto impreso]"</text>
</g>
<!-- ns1:a3316285&#45;&gt;&quot;[Texto impreso]&quot; -->
<g id="edge15" class="edge">
<title>ns1:a3316285-&gt;"[Texto impreso]"</title>
<path fill="none" stroke="#000000" d="M1339.8103,-1205.122C1166.7331,-1276.0701 525.2231,-1539.0389 343.7878,-1613.4132"/>
<polygon fill="#000000" stroke="#000000" points="342.4212,-1610.1907 334.4959,-1617.2222 345.0763,-1616.6677 342.4212,-1610.1907"/>
<text text-anchor="middle" x="812.2402" y="-1413.4676" font-family="Times,serif" font-size="14.00" fill="#000000">ns2:P3005</text>
</g>
<!-- &quot;[2007]&quot; -->
<g id="node17" class="node">
<title>"[2007]"</title>
<ellipse fill="none" stroke="#000000" cx="236.3421" cy="-1444.4219" rx="44.8168" ry="18"/>
<text text-anchor="middle" x="236.3421" y="-1440.2219" font-family="Times,serif" font-size="14.00" fill="#000000">"[2007]"</text>
</g>
<!-- ns1:a3316285&#45;&gt;&quot;[2007]&quot; -->
<g id="edge16" class="edge">
<title>ns1:a3316285-&gt;"[2007]"</title>
<path fill="none" stroke="#000000" d="M1306.5326,-1204.5376C1087.9841,-1253.5255 465.4972,-1393.0565 285.5935,-1433.3821"/>
<polygon fill="#000000" stroke="#000000" points="284.6151,-1430.0145 275.6228,-1435.6171 286.1462,-1436.845 284.6151,-1430.0145"/>
<text text-anchor="middle" x="766.5041" y="-1323.1599" font-family="Times,serif" font-size="14.00" fill="#000000">ns2:P3006</text>
</g>
<!-- &quot;24 cm&quot; -->
<g id="node18" class="node">
<title>"24 cm"</title>
<ellipse fill="none" stroke="#000000" cx="212.1128" cy="-1286.9545" rx="42.5704" ry="18"/>
<text text-anchor="middle" x="212.1128" y="-1282.7545" font-family="Times,serif" font-size="14.00" fill="#000000">"24 cm"</text>
</g>
<!-- ns1:a3316285&#45;&gt;&quot;24 cm&quot; -->
<g id="edge17" class="edge">
<title>ns1:a3316285-&gt;"24 cm"</title>
<path fill="none" stroke="#000000" d="M1222.1298,-1201.0626C954.4079,-1223.8297 430.6092,-1268.3736 264.1801,-1282.5267"/>
<polygon fill="#000000" stroke="#000000" points="263.8695,-1279.0404 254.202,-1283.3752 264.4627,-1286.0152 263.8695,-1279.0404"/>
<text text-anchor="middle" x="713.596" y="-1245.9947" font-family="Times,serif" font-size="14.00" fill="#000000">ns2:P3007</text>
</g>
<!-- &quot;WebSemántica&#39;2007 ; editores, Óscar Corcho ... [et al.]&quot; -->
<g id="node19" class="node">
<title>"WebSemántica'2007 ; editores, Óscar Corcho ... [et al.]"</title>
<ellipse fill="none" stroke="#000000" cx="234.2326" cy="-939.9226" rx="234.4655" ry="18"/>
<text text-anchor="middle" x="234.2326" y="-935.7226" font-family="Times,serif" font-size="14.00" fill="#000000">"WebSemántica'2007 ; editores, Óscar Corcho ... [et al.]"</text>
</g>
<!-- ns1:a3316285&#45;&gt;&quot;WebSemántica&#39;2007 ; editores, Óscar Corcho ... [et al.]&quot; -->
<g id="edge18" class="edge">
<title>ns1:a3316285-&gt;"WebSemántica'2007 ; editores, Óscar Corcho ... [et al.]"</title>
<path fill="none" stroke="#000000" d="M1303.6888,-1170.267C1096.4698,-1125.6352 540.4423,-1005.8755 323.0651,-959.0557"/>
<polygon fill="#000000" stroke="#000000" points="323.7975,-955.6333 313.2847,-956.9492 322.3235,-962.4764 323.7975,-955.6333"/>
<text text-anchor="middle" x="783.818" y="-1068.8614" font-family="Times,serif" font-size="14.00" fill="#000000">ns2:P3008</text>
</g>
<!-- &quot;M 38241&#45;2007&quot; -->
<g id="node20" class="node">
<title>"M 38241-2007"</title>
<ellipse fill="none" stroke="#000000" cx="373.8336" cy="-585.2835" rx="76.6681" ry="18"/>
<text text-anchor="middle" x="373.8336" y="-581.0835" font-family="Times,serif" font-size="14.00" fill="#000000">"M 38241-2007"</text>
</g>
<!-- ns1:a3316285&#45;&gt;&quot;M 38241&#45;2007&quot; -->
<g id="edge19" class="edge">
<title>ns1:a3316285-&gt;"M 38241-2007"</title>
<path fill="none" stroke="#000000" d="M1352.9034,-1169.3536C1206.5825,-1082.065 571.945,-703.468 411.0313,-607.474"/>
<polygon fill="#000000" stroke="#000000" points="412.3676,-604.1958 401.9865,-602.0783 408.7814,-610.2073 412.3676,-604.1958"/>
<text text-anchor="middle" x="852.4085" y="-892.6138" font-family="Times,serif" font-size="14.00" fill="#000000">ns2:P3009</text>
</g>
<!-- &quot;il.&quot; -->
<g id="node21" class="node">
<title>"il."</title>
<ellipse fill="none" stroke="#000000" cx="474.6979" cy="-441.7606" rx="27" ry="18"/>
<text text-anchor="middle" x="474.6979" y="-437.5606" font-family="Times,serif" font-size="14.00" fill="#000000">"il."</text>
</g>
<!-- ns1:a3316285&#45;&gt;&quot;il.&quot; -->
<g id="edge20" class="edge">
<title>ns1:a3316285-&gt;"il."</title>
<path fill="none" stroke="#000000" d="M1361.1039,-1169.3114C1237.5514,-1067.9011 630.9986,-570.0502 499.7661,-462.3362"/>
<polygon fill="#000000" stroke="#000000" points="501.7698,-459.4529 491.8196,-455.8138 497.3287,-464.8637 501.7698,-459.4529"/>
<text text-anchor="middle" x="900.8761" y="-820.0238" font-family="Times,serif" font-size="14.00" fill="#000000">ns2:P3012</text>
</g>
<!-- &quot;978&#45;84&#45;9732&#45;612&#45;4&quot; -->
<g id="node22" class="node">
<title>"978-84-9732-612-4"</title>
<ellipse fill="none" stroke="#000000" cx="609.2273" cy="-302.9207" rx="94.588" ry="18"/>
<text text-anchor="middle" x="609.2273" y="-298.7207" font-family="Times,serif" font-size="14.00" fill="#000000">"978-84-9732-612-4"</text>
</g>
<!-- ns1:a3316285&#45;&gt;&quot;978&#45;84&#45;9732&#45;612&#45;4&quot; -->
<g id="edge21" class="edge">
<title>ns1:a3316285-&gt;"978-84-9732-612-4"</title>
<path fill="none" stroke="#000000" d="M1367.2997,-1169.3049C1269.459,-1057.4848 746.8947,-460.2577 631.7035,-328.6082"/>
<polygon fill="#000000" stroke="#000000" points="634.2305,-326.1812 625.0115,-320.9601 628.9624,-330.7907 634.2305,-326.1812"/>
<text text-anchor="middle" x="969.9427" y="-753.1565" font-family="Times,serif" font-size="14.00" fill="#000000">ns2:P3013</text>
</g>
<!-- &quot;Incluye referencias bibliográficas e índice&quot; -->
<g id="node23" class="node">
<title>"Incluye referencias bibliográficas e índice"</title>
<ellipse fill="none" stroke="#000000" cx="905.8219" cy="-113.4336" rx="186.9837" ry="18"/>
<text text-anchor="middle" x="905.8219" y="-109.2336" font-family="Times,serif" font-size="14.00" fill="#000000">"Incluye referencias bibliográficas e índice"</text>
</g>
<!-- ns1:a3316285&#45;&gt;&quot;Incluye referencias bibliográficas e índice&quot; -->
<g id="edge22" class="edge">
<title>ns1:a3316285-&gt;"Incluye referencias bibliográficas e índice"</title>
<path fill="none" stroke="#000000" d="M1375.025,-1169.1833C1318.8076,-1042.6889 986.4036,-294.7496 918.0908,-141.0396"/>
<polygon fill="#000000" stroke="#000000" points="921.2384,-139.504 913.9788,-131.7872 914.8417,-142.3469 921.2384,-139.504"/>
<text text-anchor="middle" x="1116.999" y="-659.3115" font-family="Times,serif" font-size="14.00" fill="#000000">ns2:P3015</text>
</g>
<!-- &quot;Web Semántica España&quot; -->
<g id="node24" class="node">
<title>"Web Semántica España"</title>
<ellipse fill="none" stroke="#000000" cx="1265.996" cy="-18" rx="115.3794" ry="18"/>
<text text-anchor="middle" x="1265.996" y="-13.8" font-family="Times,serif" font-size="14.00" fill="#000000">"Web Semántica España"</text>
</g>
<!-- ns1:a3316285&#45;&gt;&quot;Web Semántica España&quot; -->
<g id="edge23" class="edge">
<title>ns1:a3316285-&gt;"Web Semántica España"</title>
<path fill="none" stroke="#000000" d="M1381.2694,-1169.0049C1367.8711,-1035.2226 1285.352,-211.2698 1268.8619,-46.6167"/>
<polygon fill="#000000" stroke="#000000" points="1272.3107,-45.929 1267.8315,-36.3276 1265.3455,-46.6267 1272.3107,-45.929"/>
<text text-anchor="middle" x="1295.5068" y="-612.0108" font-family="Times,serif" font-size="14.00" fill="#000000">ns2:P3015</text>
</g>
<!-- &quot;Textos en español e inglés&quot; -->
<g id="node25" class="node">
<title>"Textos en español e inglés"</title>
<ellipse fill="none" stroke="#000000" cx="1577.0504" cy="-28.2632" rx="124.9017" ry="18"/>
<text text-anchor="middle" x="1577.0504" y="-24.0632" font-family="Times,serif" font-size="14.00" fill="#000000">"Textos en español e inglés"</text>
</g>
<!-- ns1:a3316285&#45;&gt;&quot;Textos en español e inglés&quot; -->
<g id="edge24" class="edge">
<title>ns1:a3316285-&gt;"Textos en español e inglés"</title>
<path fill="none" stroke="#000000" d="M1386.1553,-1169.1661C1408.3432,-1036.558 1544.9964,-219.8367 1572.3043,-56.6288"/>
<polygon fill="#000000" stroke="#000000" points="1575.8124,-56.8705 1574.0107,-46.43 1568.9084,-55.7153 1575.8124,-56.8705"/>
<text text-anchor="middle" x="1449.6709" y="-617.0975" font-family="Times,serif" font-size="14.00" fill="#000000">ns2:P3015</text>
</g>
<!-- &quot;Jornadas desarrolladas en el marco del II Congreso Español de Informática (CEDI 2007) celebrado en Zaragoza del 11 al 14 de septiembre de 2007&quot; -->
<g id="node26" class="node">
<title>"Jornadas desarrolladas en el marco del II Congreso Español de Informática (CEDI 2007) celebrado en Zaragoza del 11 al 14 de septiembre de 2007"</title>
<ellipse fill="none" stroke="#000000" cx="2257.175" cy="-401.7794" rx="594.1472" ry="18"/>
<text text-anchor="middle" x="2257.175" y="-397.5794" font-family="Times,serif" font-size="14.00" fill="#000000">"Jornadas desarrolladas en el marco del II Congreso Español de Informática (CEDI 2007) celebrado en Zaragoza del 11 al 14 de septiembre de 2007"</text>
</g>
<!-- ns1:a3316285&#45;&gt;&quot;Jornadas desarrolladas en el marco del II Congreso Español de Informática (CEDI 2007) celebrado en Zaragoza del 11 al 14 de septiembre de 2007&quot; -->
<g id="edge25" class="edge">
<title>ns1:a3316285-&gt;"Jornadas desarrolladas en el marco del II Congreso Español de Informática (CEDI 2007) celebrado en Zaragoza del 11 al 14 de septiembre de 2007"</title>
<path fill="none" stroke="#000000" d="M1403.4282,-1169.1104C1519.2849,-1064.9806 2095.9467,-546.6883 2229.5193,-426.6358"/>
<polygon fill="#000000" stroke="#000000" points="2231.8693,-429.2296 2236.9671,-419.9418 2227.19,-424.0234 2231.8693,-429.2296"/>
<text text-anchor="middle" x="1786.9149" y="-802.0731" font-family="Times,serif" font-size="14.00" fill="#000000">ns2:P3015</text>
</g>
<!-- &quot;Libro&quot; -->
<g id="node27" class="node">
<title>"Libro"</title>
<ellipse fill="none" stroke="#000000" cx="2548.258" cy="-1033.8275" rx="40.2394" ry="18"/>
<text text-anchor="middle" x="2548.258" y="-1029.6275" font-family="Times,serif" font-size="14.00" fill="#000000">"Libro"</text>
</g>
<!-- ns1:a3316285&#45;&gt;&quot;Libro&quot; -->
<g id="edge26" class="edge">
<title>ns1:a3316285-&gt;"Libro"</title>
<path fill="none" stroke="#000000" d="M1502.8678,-1171.5909C1754.4055,-1138.4428 2328.5424,-1062.782 2499.4124,-1040.2645"/>
<polygon fill="#000000" stroke="#000000" points="2499.9162,-1043.7284 2509.3732,-1038.9518 2499.0016,-1036.7884 2499.9162,-1043.7284"/>
<text text-anchor="middle" x="1971.5812" y="-1110.1277" font-family="Times,serif" font-size="14.00" fill="#000000">ns2:P3064</text>
</g>
</g>
</svg>